#tb 0: 1/15
#tb 1: 1/37800
0,          0,          0,        1,   115200, 0x6b106a56
1,          0,          0,     2016,     8064, 0x02260037
1,       2016,       2016,     2016,     8064, 0x4ee9f4e9
0,          1,          1,        1,   115200, 0x53c16930
1,       4032,       4032,     2016,     8064, 0xf8fd82aa
0,          2,          2,        1,   115200, 0xe2126f03
1,       6048,       6048,     2016,     8064, 0xc100792b
0,          3,          3,        1,   115200, 0xc3c18ba0
1,       8064,       8064,     2016,     8064, 0xf11a5316
0,          4,          4,        1,   115200, 0xe281b655
1,      10080,      10080,     2016,     8064, 0x6937f8c0
1,      12096,      12096,     2016,     8064, 0xed194e42
0,          5,          5,        1,   115200, 0x7b1e0536
1,      14112,      14112,     2016,     8064, 0x619ce54b
0,          6,          6,        1,   115200, 0xbbd868c5
1,      16128,      16128,     2016,     8064, 0x544999ec
0,          7,          7,        1,   115200, 0xfc67bf8e
1,      18144,      18144,     2016,     8064, 0x0ea877b4
0,          8,          8,        1,   115200, 0xb463151c
1,      20160,      20160,     2016,     8064, 0xb764d1c0
1,      22176,      22176,     2016,     8064, 0x7a2fd211
0,          9,          9,        1,   115200, 0x6e686846
1,      24192,      24192,     2016,     8064, 0xff69f6c5
0,         10,         10,        1,   115200, 0xca36b835
1,      26208,      26208,     2016,     8064, 0x26c11ec7
0,         11,         11,        1,   115200, 0x17b91efc
1,      28224,      28224,     2016,     8064, 0xfb4ecc0c
0,         12,         12,        1,   115200, 0xc051a49a
1,      30240,      30240,     2016,     8064, 0x111d799b
1,      32256,      32256,     2016,     8064, 0xc704dc91
0,         13,         13,        1,   115200, 0xc68c227b
1,      34272,      34272,     2016,     8064, 0xa9f372fb
0,         14,         14,        1,   115200, 0x9ba6b521
1,      36288,      36288,     2016,     8064, 0xa3f0ad0f
0,         15,         15,        1,   115200, 0x09d56ecc
1,      38304,      38304,     2016,     8064, 0x958719b9
0,         16,         16,        1,   115200, 0xc20e3485
1,      40320,      40320,     2016,     8064, 0x9b011bf7
1,      42336,      42336,     2016,     8064, 0x466d96fb
0,         17,         17,        1,   115200, 0xf07e2c48
1,      44352,      44352,     2016,     8064, 0x6ed4eb29
0,         18,         18,        1,   115200, 0x551c6da1
1,      46368,      46368,     2016,     8064, 0x066966db
0,         19,         19,        1,   115200, 0xed65bacd
1,      48384,      48384,     2016,     8064, 0xf60fe0bc
0,         20,         20,        1,   115200, 0x51a23a3b
1,      50400,      50400,     2016,     8064, 0x2c845167
1,      52416,      52416,     2016,     8064, 0x7d63894f
0,         21,         21,        1,   115200, 0x559ddce1
1,      54432,      54432,     2016,     8064, 0x0682ee36
0,         22,         22,        1,   115200, 0x1fef6373
1,      56448,      56448,     2016,     8064, 0xcaeb7c70
0,         23,         23,        1,   115200, 0x11b2dece
1,      58464,      58464,     2016,     8064, 0x93948697
0,         24,         24,        1,   115200, 0x851b877c
1,      60480,      60480,     2016,     8064, 0x5805f0d6
1,      62496,      62496,     2016,     8064, 0xcfb641ff
0,         25,         25,        1,   115200, 0x5f9a7c99
1,      64512,      64512,     2016,     8064, 0xe3499bb1
0,         26,         26,        1,   115200, 0x9ffe6153
1,      66528,      66528,     2016,     8064, 0x689fe483
0,         27,         27,        1,   115200, 0x950b0de8
1,      68544,      68544,     2016,     8064, 0x1b8f2f2d
0,         28,         28,        1,   115200, 0x6ec4c89a
1,      70560,      70560,     2016,     8064, 0x23852e71
1,      72576,      72576,     2016,     8064, 0x15e7b298
0,         29,         29,        1,   115200, 0xa9234812
1,      74592,      74592,     2016,     8064, 0x5345a9a3
0,         30,         30,        1,   115200, 0xc834f491
1,      76608,      76608,     2016,     8064, 0x257b6ecf
0,         31,         31,        1,   115200, 0x2cc1a2aa
1,      78624,      78624,     2016,     8064, 0xaf62836c
0,         32,         32,        1,   115200, 0x5df53b71
1,      80640,      80640,     2016,     8064, 0xc3a401e3
1,      82656,      82656,     2016,     8064, 0x2b98fdf1
0,         33,         33,        1,   115200, 0xe1d0cb31
1,      84672,      84672,     2016,     8064, 0x37168697
0,         34,         34,        1,   115200, 0xa0d2f8ab
1,      86688,      86688,     2016,     8064, 0x2d876c89
0,         35,         35,        1,   115200, 0x9342d739
1,      88704,      88704,     2016,     8064, 0xc40a6ada
0,         36,         36,        1,   115200, 0x586bc658
1,      90720,      90720,     2016,     8064, 0xcca6b829
1,      92736,      92736,     2016,     8064, 0x6667550a
0,         37,         37,        1,   115200, 0x76902834
1,      94752,      94752,     2016,     8064, 0x99c1b5cb
0,         38,         38,        1,   115200, 0x91f25616
1,      96768,      96768,     2016,     8064, 0xc05d3ed3
0,         39,         39,        1,   115200, 0xce8c95fb
1,      98784,      98784,     2016,     8064, 0xdd641781
0,         40,         40,        1,   115200, 0xdf0d3de6
1,     100800,     100800,     2016,     8064, 0xa65d49dc
1,     102816,     102816,     2016,     8064, 0x2a0d5df7
0,         41,         41,        1,   115200, 0x120db7ae
1,     104832,     104832,     2016,     8064, 0xa6348438
0,         42,         42,        1,   115200, 0x2143e287
1,     106848,     106848,     2016,     8064, 0xf2e1412d
0,         43,         43,        1,   115200, 0x2498d3b6
1,     108864,     108864,     2016,     8064, 0xc41c6a7a
0,         44,         44,        1,   115200, 0x99975ff8
1,     110880,     110880,     2016,     8064, 0x147edc3d
1,     112896,     112896,     2016,     8064, 0x17e3cfe7
0,         45,         45,        1,   115200, 0xbad65f9f
1,     114912,     114912,     2016,     8064, 0x01fe3969
0,         46,         46,        1,   115200, 0x5066605b
1,     116928,     116928,     2016,     8064, 0xc437ac11
0,         47,         47,        1,   115200, 0x6f8a61a0
1,     118944,     118944,     2016,     8064, 0xbbf747c1
0,         48,         48,        1,   115200, 0x80c96143
1,     120960,     120960,     2016,     8064, 0x2a4b88c0
1,     122976,     122976,     2016,     8064, 0xcd149c80
0,         49,         49,        1,   115200, 0x663c6198
1,     124992,     124992,     2016,     8064, 0xcf339dfc
0,         50,         50,        1,   115200, 0x0354620b
1,     127008,     127008,     2016,     8064, 0xc81ff84b
0,         51,         51,        1,   115200, 0xfe186346
1,     129024,     129024,     2016,     8064, 0x4d978100
0,         52,         52,        1,   115200, 0x844962f8
1,     131040,     131040,     2016,     8064, 0x6da6665b
1,     133056,     133056,     2016,     8064, 0x12fa354f
0,         53,         53,        1,   115200, 0x917c672f
1,     135072,     135072,     2016,     8064, 0x6baedae6
0,         54,         54,        1,   115200, 0x45086647
1,     137088,     137088,     2016,     8064, 0xddd77327
0,         55,         55,        1,   115200, 0xace06816
1,     139104,     139104,     2016,     8064, 0x0a31c118
0,         56,         56,        1,   115200, 0x4ef26aa2
1,     141120,     141120,     2016,     8064, 0x7652ee6e
1,     143136,     143136,     2016,     8064, 0x486a24cc
0,         57,         57,        1,   115200, 0xf2046bb3
1,     145152,     145152,     2016,     8064, 0xf6cf01ee
0,         58,         58,        1,   115200, 0x846b6eb0
1,     147168,     147168,     2016,     8064, 0x2a19e830
0,         59,         59,        1,   115200, 0x8a17716d
1,     149184,     149184,     2016,     8064, 0xde675a31
0,         60,         60,        1,   115200, 0x36127568
1,     151200,     151200,     2016,     8064, 0xeefcc9af
1,     153216,     153216,     2016,     8064, 0xaec4c989
0,         61,         61,        1,   115200, 0x3e877b5c
1,     155232,     155232,     2016,     8064, 0x16b73de9
0,         62,         62,        1,   115200, 0xea5681e8
1,     157248,     157248,     2016,     8064, 0x188a582a
0,         63,         63,        1,   115200, 0x41bc8a39
1,     159264,     159264,     2016,     8064, 0xc092e73d
0,         64,         64,        1,   115200, 0x6f839446
1,     161280,     161280,     2016,     8064, 0xf7ebca97
1,     163296,     163296,     2016,     8064, 0x170ce07a
0,         65,         65,        1,   115200, 0xef74a005
1,     165312,     165312,     2016,     8064, 0xa0705384
0,         66,         66,        1,   115200, 0x4354b2c2
1,     167328,     167328,     2016,     8064, 0xd0154a3c
0,         67,         67,        1,   115200, 0x4607cf99
1,     169344,     169344,     2016,     8064, 0x57c73c6c
0,         68,         68,        1,   115200, 0x4c18e8db
1,     171360,     171360,     2016,     8064, 0x590c9ddb
1,     173376,     173376,     2016,     8064, 0x2cbe552f
0,         69,         69,        1,   115200, 0x04d71efb
1,     175392,     175392,     2016,     8064, 0x0d286932
0,         70,         70,        1,   115200, 0x32f4b9ae
1,     177408,     177408,     2016,     8064, 0x5931cea3
0,         71,         71,        1,   115200, 0x4dd48d01
1,     179424,     179424,     2016,     8064, 0xaf0fb80d
0,         72,         72,        1,   115200, 0x5fa9627f
1,     181440,     181440,     2016,     8064, 0x7fb61e9b
1,     183456,     183456,     2016,     8064, 0xf17134bb
0,         73,         73,        1,   115200, 0x7a413f88
1,     185472,     185472,     2016,     8064, 0xd647859a
0,         74,         74,        1,   115200, 0xf1b7e5b6
1,     187488,     187488,     2016,     8064, 0x55a60921
0,         75,         75,        1,   115200, 0x3d720e05
1,     189504,     189504,     2016,     8064, 0x3811fa58
0,         76,         76,        1,   115200, 0x49243fd8
1,     191520,     191520,     2016,     8064, 0xaceeccea
1,     193536,     193536,     2016,     8064, 0x5fcedf14
0,         77,         77,        1,   115200, 0x9834b697
1,     195552,     195552,     2016,     8064, 0xd8c64abf
0,         78,         78,        1,   115200, 0x4b8bc217
1,     197568,     197568,     2016,     8064, 0x79495e8d
0,         79,         79,        1,   115200, 0x3eaf5504
1,     199584,     199584,     2016,     8064, 0x4b7db039
0,         80,         80,        1,   115200, 0x057a3701
1,     201600,     201600,     2016,     8064, 0x7152f86d
1,     203616,     203616,     2016,     8064, 0xd92cfc1a
0,         81,         81,        1,   115200, 0x6e88f21a
1,     205632,     205632,     2016,     8064, 0x75c540ef
0,         82,         82,        1,   115200, 0x236c5226
1,     207648,     207648,     2016,     8064, 0x9c03ef5e
0,         83,         83,        1,   115200, 0x92212d84
1,     209664,     209664,     2016,     8064, 0x7b2911c8
0,         84,         84,        1,   115200, 0xf6b0a4ff
1,     211680,     211680,     2016,     8064, 0x69d9d553
1,     213696,     213696,     2016,     8064, 0xcb45d7c5
0,         85,         85,        1,   115200, 0xb49e9b4e
1,     215712,     215712,     2016,     8064, 0x37ec8b0a
0,         86,         86,        1,   115200, 0x4a252440
1,     217728,     217728,     2016,     8064, 0xe4354221
0,         87,         87,        1,   115200, 0x65f3339a
1,     219744,     219744,     2016,     8064, 0xc0d91cdb
0,         88,         88,        1,   115200, 0x38e40a20
1,     221760,     221760,     2016,     8064, 0xea0be175
